<?xml version="1.0" encoding="UTF-8"?>
<!DOCTYPE svg PUBLIC "-//W3C//DTD SVG 1.1//EN" "http://www.w3.org/Graphics/SVG/1.1/DTD/svg11.dtd">
<!-- Creator: CorelDRAW -->
<svg xmlns="http://www.w3.org/2000/svg" xml:space="preserve" width="127.559mm" height="75.9101mm" version="1.1" style="shape-rendering:geometricPrecision; text-rendering:geometricPrecision; image-rendering:optimizeQuality; fill-rule:evenodd; clip-rule:evenodd"
viewBox="0 0 12741.64 7582.54"
 xmlns:xlink="http://www.w3.org/1999/xlink"
 xmlns:xodm="http://www.corel.com/coreldraw/odm/2003">
 <defs>
  <style type="text/css">
   <![CDATA[
    .fil3 {fill:#7D173F}
    .fil1 {fill:#7D173F;fill-rule:nonzero}
    .fil0 {fill:#828282;fill-rule:nonzero}
    .fil2 {fill:#D6D6D6;fill-rule:nonzero}
    .fil4 {fill:#FFD600;fill-rule:nonzero}
   ]]>
  </style>
 </defs>
 <g id="Слой_x0020_1">
  <metadata id="CorelCorpID_0Corel-Layer"/>
  <g id="_1525195876192">
   <g>
    <path class="fil0" d="M3228.38 6670.25l161.22 0 0 526.07c0,129.17 -34.8,225.83 -104.4,289.99 -70.47,64.16 -158.13,96.23 -262.96,96.23 -118.94,0 -214.53,-33.79 -286.76,-101.37 -71.36,-67.57 -107.04,-165.52 -107.04,-293.83l0 -517.09 162.54 0 0 483.73c0,88.97 19.61,158.04 58.81,207.23 39.2,49.19 96.67,73.78 172.45,73.78 137.43,0 206.14,-90.25 206.14,-270.74l0 -494zm1209.12 0l0 898.18 -129.51 0 -508.76 -622.3 0 622.3 -151.96 0 0 -898.18 129.51 0 508.75 624.87 0 -624.87 151.97 0zm451.94 898.18l-162.54 0 0 -898.18 162.54 0 0 898.18zm868.19 -898.18l162.54 0 -370.01 900.74 -122.9 0 -380.56 -900.74 173.11 0 274.86 665.94 262.97 -665.94zm849.68 898.18l-548.4 0 0 -898.18 535.19 0 0 147.56 -372.65 0 0 223.26 333 0 0 147.57 -333 0 0 232.24 385.86 0 0 147.56zm387.2 -336.17l0 336.17 -162.55 0 0 -898.18c45.81,0 95.59,-0.43 149.32,-1.28 53.74,-0.86 97.79,-1.29 132.15,-1.29 223.76,0 335.65,92.39 335.65,277.15 0,68.43 -18.06,124.89 -54.18,169.37 -36.12,42.77 -77.53,71.86 -124.21,87.25l289.39 366.97 -196.89 0 -255.04 -336.17 -113.64 0zm111 -417c-4.41,0 -11.45,0.21 -21.14,0.64 -9.7,0.43 -23.35,0.85 -40.96,1.28 -17.63,0.43 -33.92,0.64 -48.9,0.64l0 266.89 105.71 0c51.98,0 94.48,-12.41 127.52,-37.21 33.03,-24.81 49.55,-58.59 49.55,-101.37 0,-87.25 -57.26,-130.87 -171.79,-130.87zm980.51 514.53c0,-27.38 -10.36,-51.54 -31.06,-72.5 -20.71,-20.96 -46.47,-38.07 -77.31,-51.32 -30.83,-13.27 -64.52,-28.66 -101.08,-46.2 -36.57,-17.53 -70.26,-35.92 -101.1,-55.17 -30.84,-19.25 -56.6,-46.19 -77.31,-80.84 -20.7,-34.64 -31.05,-74.63 -31.05,-119.97 0,-69.29 25.99,-127.89 77.96,-175.78 53.74,-47.91 123.77,-71.86 210.12,-71.86 117.16,0 205.26,32.08 264.28,96.23l-87.21 118.05c-46.69,-44.48 -101.32,-66.73 -163.87,-66.73 -39.64,0 -71.13,8.99 -94.47,26.95 -23.35,17.96 -35.02,41.91 -35.02,71.85 0,15.4 3.08,29.73 9.25,42.99 6.16,13.26 13,24.16 20.49,32.71 7.48,8.56 19.82,17.97 37,28.23 17.18,10.27 30.84,17.75 40.96,22.45 10.13,4.7 27.09,12.19 50.87,22.45 23.78,10.27 40.52,17.54 50.21,21.82 38.76,17.1 72.68,35.07 101.75,53.89 32.6,18.82 58.81,45.76 78.63,80.83 19.82,35.08 29.74,75.28 29.74,120.62 0,75.28 -29.52,136.44 -88.54,183.49 -59.02,47.05 -132.58,70.57 -220.68,70.57 -61.66,0 -122.89,-12.41 -183.68,-37.21 -58.15,-25.66 -97.78,-60.31 -118.93,-103.93l92.5 -107.78c24.67,31.64 56.61,56.46 95.81,74.42 39.21,17.97 78.18,26.95 116.94,26.95 40.53,0 73.13,-9.41 97.8,-28.23 24.66,-18.82 37,-44.48 37,-76.98zm555.01 238.65l-162.54 0 0 -898.18 162.54 0 0 898.18zm474.4 -750.62l-299.96 0 0 -147.56 762.46 0 0 147.56 -299.96 0 0 750.62 -162.53 0 0 -750.62zm1137.77 -147.56l175.74 0 -329.03 523.51 0 374.67 -162.55 0 0 -374.67 -326.4 -523.51 185.01 0 229.93 375.95 227.29 -375.95z"/>
    <path class="fil0" d="M11469.54 5892.13l-134.79 -319.49 -136.11 319.49 270.9 0zm-429.47 377.23l-163.86 0 391.14 -900.73 142.71 0 391.15 900.73 -173.11 0 -96.46 -229.67 -395.12 0 -96.46 229.67z"/>
    <polygon class="fil0" points="10725.57,5371.19 10725.57,6269.36 10596.06,6269.36 10087.31,5647.05 10087.31,6269.36 9935.35,6269.36 9935.35,5371.19 10064.85,5371.19 10573.61,5996.06 10573.61,5371.19 "/>
    <path class="fil0" d="M9451.71 5892.13l-134.79 -319.49 -136.11 319.49 270.9 0zm-429.47 377.23l-163.86 0 391.14 -900.73 142.71 0 391.15 900.73 -173.11 0 -96.46 -229.67 -395.12 0 -96.46 229.67z"/>
    <polygon class="fil0" points="8442.13,5518.74 8142.16,5518.74 8142.16,5371.19 8904.63,5371.19 8904.63,5518.74 8604.67,5518.74 8604.67,6269.36 8442.13,6269.36 "/>
    <path class="fil0" d="M7884.48 6030.7c0,-27.38 -10.35,-51.54 -31.05,-72.5 -20.71,-20.96 -46.48,-38.07 -77.31,-51.32 -30.83,-13.26 -64.53,-28.66 -101.09,-46.19 -36.56,-17.54 -70.26,-35.93 -101.09,-55.18 -30.84,-19.25 -56.6,-46.19 -77.31,-80.83 -20.7,-34.65 -31.05,-74.64 -31.05,-119.98 0,-69.28 25.99,-127.88 77.96,-175.78 53.74,-47.9 123.77,-71.85 210.11,-71.85 117.17,0 205.26,32.07 264.29,96.23l-87.22 118.05c-46.69,-44.48 -101.31,-66.73 -163.86,-66.73 -39.65,0 -71.13,8.98 -94.47,26.95 -23.35,17.96 -35.02,41.91 -35.02,71.85 0,15.39 3.08,29.73 9.25,42.98 6.16,13.26 13,24.16 20.49,32.72 7.48,8.55 19.82,17.96 36.99,28.23 17.18,10.26 30.85,17.75 40.96,22.45 10.13,4.7 27.1,12.19 50.88,22.44 23.78,10.27 40.51,17.54 50.21,21.82 38.76,17.11 72.68,35.07 101.75,53.89 32.59,18.82 58.8,45.77 78.63,80.84 19.82,35.07 29.73,75.28 29.73,120.61 0,75.28 -29.52,136.44 -88.53,183.49 -59.03,47.05 -132.58,70.57 -220.68,70.57 -61.66,0 -122.89,-12.41 -183.68,-37.21 -58.15,-25.66 -97.78,-60.3 -118.93,-103.93l92.5 -107.78c24.67,31.65 56.61,56.46 95.81,74.42 39.21,17.97 78.18,26.95 116.94,26.95 40.52,0 73.13,-9.41 97.79,-28.23 24.66,-18.82 37,-44.48 37,-76.98z"/>
    <path class="fil0" d="M7029.53 5892.13l-134.8 -319.49 -136.1 319.49 270.9 0zm-429.48 377.23l-163.86 0 391.14 -900.73 142.72 0 391.14 900.73 -173.11 0 -96.46 -229.67 -395.12 0 -96.46 229.67z"/>
    <polygon class="fil0" points="6351.62,5987.07 6018.62,5987.07 6018.62,5849.79 6351.62,5849.79 "/>
    <polygon class="fil0" points="5801.91,5371.19 5801.91,6269.36 5672.4,6269.36 5163.65,5647.05 5163.65,6269.36 5011.68,6269.36 5011.68,5371.19 5141.19,5371.19 5649.94,5996.06 5649.94,5371.19 "/>
    <path class="fil0" d="M4528.05 5892.13l-134.8 -319.49 -136.1 319.49 270.9 0zm-429.48 377.23l-163.86 0 391.14 -900.73 142.72 0 391.14 900.73 -173.11 0 -96.46 -229.67 -395.12 0 -96.46 229.67z"/>
    <path class="fil0" d="M3452.39 5516.18c-4.4,0 -11.46,0.21 -21.15,0.64 -9.69,0.43 -23.34,0.86 -40.96,1.29 -17.61,0.43 -33.92,0.64 -48.89,0.64l0 266.88 105.71 0c51.97,0 94.47,-12.4 127.52,-37.21 33.03,-24.8 49.55,-58.59 49.55,-101.37 0,-87.25 -57.27,-130.87 -171.79,-130.87zm-111 417l0 336.17 -162.54 0 0 -898.17c45.81,0 95.57,-0.43 149.32,-1.29 53.74,-0.85 97.79,-1.28 132.13,-1.28 223.77,0 335.65,92.39 335.65,277.15 0,68.43 -18.05,124.89 -54.17,169.37 -36.12,42.76 -77.52,71.85 -124.22,87.24l289.41 366.97 -196.9 0 -255.04 -336.17 -113.64 0z"/>
    <path class="fil0" d="M2759.96 5371.19l161.21 0 0 526.07c0,129.17 -34.79,225.82 -104.38,289.98 -70.48,64.16 -158.13,96.23 -262.98,96.23 -118.92,0 -214.51,-33.79 -286.75,-101.37 -71.35,-67.57 -107.04,-165.52 -107.04,-293.83l0 -517.08 162.55 0 0 483.73c0,88.96 19.61,158.03 58.79,207.22 39.21,49.19 96.69,73.78 172.45,73.78 137.44,0 206.15,-90.25 206.15,-270.74l0 -493.99z"/>
    <polygon class="fil0" points="1556.12,5518.74 1256.17,5518.74 1256.17,5371.19 2018.63,5371.19 2018.63,5518.74 1718.66,5518.74 1718.66,6269.36 1556.12,6269.36 "/>
   </g>
   <path class="fil1" d="M11997.92 2547.57c0,284.07 -110.48,531.33 -315.65,736.49 -205.16,205.17 -452.41,310.38 -741.75,310.38 -289.34,0 -541.85,-99.95 -747.02,-310.38 -199.91,-199.91 -299.87,-447.15 -299.87,-736.49l0 -2456.75 -699.67 0 0 2456.75c0,478.72 168.34,899.58 510.29,1241.52 341.94,341.94 757.53,510.28 1236.26,510.28 478.73,0 899.58,-168.34 1241.52,-510.28 347.2,-341.95 515.54,-757.54 515.54,-1241.52l-699.67 0z"/>
   <path class="fil2" d="M12041.1 2591.63c-5.11,130.13 -32.98,252.8 -82.13,367.48 -55.62,129.79 -138.18,248.73 -245.54,356.11l-0.18 0c-107.03,107 -225.32,187.97 -354.81,242.15 -128.71,53.86 -268.03,81.13 -417.92,81.13 -151.78,0 -294.16,-26.63 -425.71,-81.29 -128.72,-53.48 -246.62,-133.75 -352.36,-242.08l-0.09 0.09c-103.94,-103.94 -182.07,-220.44 -234.31,-348.79 -52.31,-128.47 -78.47,-268.33 -78.47,-418.85l0 -2412.69 -611.56 0 0 2412.69c0,235.24 41.44,455.77 124.95,658.97 82.53,200.78 206.47,385.43 372.43,551.39 166.29,166.3 350.02,290.4 549.88,372.88 201.58,83.21 420.46,124.49 655.24,124.49 235.25,0 455.8,-41.43 659,-124.95 200.77,-82.52 385.41,-206.46 551.36,-372.42l0.35 -0.17c168.36,-165.81 293.57,-349.3 376.83,-549.81 78.85,-189.89 120.17,-395.53 124.99,-616.34l-611.96 0zm-163 333.08c49.89,-116.42 75.77,-242.35 75.77,-377.13l0 -44.05 787.77 0 0 44.05c0,248.92 -43.66,480.53 -132.36,694.11 -87.68,211.14 -219.31,404.21 -396.19,578.45l0.09 0.09c-173.97,173.98 -368.3,304.22 -580.27,391.34 -214.41,88.12 -446.13,131.84 -692.39,131.84 -245.86,0 -475.88,-43.57 -688.62,-131.38 -211.14,-87.14 -404.53,-217.54 -578.78,-391.8 -173.98,-173.98 -304.22,-368.32 -391.35,-580.3 -88.11,-214.4 -131.84,-446.11 -131.84,-692.36l0 -2500.8 787.76 0 0 2500.8c0,139.23 23.98,268.07 71.92,385.81 47.69,117.15 119.39,223.88 215.05,319.54l0.34 0.52c97.23,99.72 205.5,173.51 323.54,222.55 120.4,50.01 251.52,74.4 391.99,74.4 138.35,0 266.43,-24.96 384.2,-74.24 118.78,-49.69 227.64,-124.31 326.52,-223.14l-0.09 -0.09c99.7,-99.72 176.02,-209.37 226.96,-328.22z"/>
   <polygon class="fil3" points="12697.49,1807.61 11997.92,1807.61 11997.92,645.11 12697.49,90.84 "/>
   <path class="fil2" d="M12697.49 1851.66l-743.62 0 0 -1227.59 787.67 -624.07 0 1851.66 -44.05 0zm-655.52 -88.1l611.47 0 0 -1581.87 -611.47 484.47 0 1097.4z"/>
   <polygon class="fil1" points="5750.17,2900.05 6372.64,1663.78 6995.12,2900.05 7779.09,2900.05 6372.64,104.01 4262.31,4299.39 5045.58,4299.39 5402.96,3594.45 "/>
   <path class="fil2" d="M5710.94 2880.26l661.71 -1314.18 649.46 1289.92 685.63 0 -1335.1 -2654.21 -2038.99 4053.54 684.99 0 345.09 -680.66 347.19 -694.4zm661.71 -1118.79l-583.26 1158.37c-237.8,475.52 -476.54,949.34 -716.88,1423.59l-881.53 0c727.08,-1445.79 1454.38,-2891.49 2181.66,-4337.17l1477.77 2937.85 -882.33 0 -595.43 -1182.63z"/>
   <polygon class="fil4" points="7005.38,3791.14 7695.9,4291.88 8479.21,4291.88 8151.3,3640.01 7367.69,3640.01 "/>
   <path class="fil2" d="M7094.65 3801.54l615.43 446.29 697.79 0 -283.58 -563.77 -747.99 0 -281.65 117.48zm575.45 525.95l-753.99 -546.77 442.99 -184.76 819.23 0 372.21 739.97 -868.81 0 -11.64 -8.44z"/>
   <polygon class="fil3" points="1446.01,2199.08 1446.01,797.34 44.04,797.34 44.04,97.77 3547.56,97.77 3547.56,797.34 2145.58,797.34 2145.58,1644.8 "/>
   <path class="fil2" d="M1401.96 2199.08l0 -1357.69 -1401.96 0 0 -787.68 3591.61 0 0 787.68 -1401.96 0 0 824.45c-262.5,208.11 -525.1,416.08 -787.68,624.08l0 -90.84zm88.1 -1401.74l0 1310.9 611.48 -484.48 0 -870.47 1401.96 0 0 -611.48 -3415.4 0 0 611.48 1401.96 0 0 44.05z"/>
   <polygon class="fil3" points="2145.58,4305.64 1446.01,4305.64 1446.01,3143.14 2145.58,2588.87 "/>
   <path class="fil2" d="M2145.59 4349.68l-743.63 0 0 -1227.59 787.68 -624.06 0 1851.65 -44.05 0zm-655.53 -88.1l611.48 0 0 -1581.85 -611.48 484.46 0 1097.39z"/>
  </g>
 </g>
</svg>
